# xmcd CD database file
#
# Track frame offsets:
#	150
#	17555
#	35232
#	52115
#	69462
#	85792
#	100950
#	114442
#	130040
#	142770
#
# Disc length: 2303 seconds
#
# Revision: 1
# Processed by: cddbd v1.5.2PL0 Copyright (c) Steve Scherf et al.
# Submitted via: CDex 2.02
#
DISCID=8108fd0a
DTITLE=?? ??? - Longer
DYEAR=1997
DGENRE=Blues
TTITLE0=Windflowers
TTITLE1=Run To Me
TTITLE2=Fragile
TTITLE3=Wonderful Tonight
TTITLE4=Desperado
TTITLE5=Longer
TTITLE6=Goodbye Girl
TTITLE7=The Turn Of A Friendly Card
TTITLE8=If
TTITLE9=Hotel California
EXTD=YEAR: 1997
EXTT0=
EXTT1=
EXTT2=
EXTT3=
EXTT4=
EXTT5=
EXTT6=
EXTT7=
EXTT8=
EXTT9=
PLAYORDER=
